<svg width="24" height="26" viewBox="0 0 24 26" fill="none" xmlns="http://www.w3.org/2000/svg">
<path d="M22.3635 2.39291L22.4292 2.60132L23.1394 5.11102C23.2743 5.58748 23.0363 6.08278 22.6005 6.27682L22.4769 6.32203L8.65662 10.3363L23.0337 10.3375C23.5229 10.3375 23.9272 10.7059 23.9912 11.1838L24 11.3166V22.4101C24 24.3193 22.5291 25.8804 20.6728 25.9935L20.457 26H4.3537C2.4694 26 0.928665 24.5096 0.817121 22.6288L0.810655 22.4101L0.81039 11.4551L0.138165 9.07772C-0.381217 7.24246 0.608064 5.33101 2.36167 4.70394L2.56736 4.63737L18.0468 0.139993C19.8581 -0.386259 21.7446 0.616108 22.3635 2.39291ZM22.0663 12.2944H2.74322V22.4101C2.74322 23.1986 3.29526 23.8566 4.02913 24.0087L4.18903 24.0334L4.3537 24.0419H20.457C21.2908 24.0419 21.9766 23.3998 22.0591 22.5769L22.0674 22.4101L22.0663 12.2944ZM5.02711 5.95976L3.10005 6.51964C2.2985 6.75252 1.81386 7.56131 1.95842 8.3753L1.99581 8.538L2.43945 10.1056L2.81963 9.99483L5.02711 5.95976ZM11.1551 4.17936L7.6539 5.19657L5.44642 9.23164L8.94758 8.21443L11.1551 4.17936ZM17.2842 2.39859L13.7831 3.41581L11.5756 7.45088L15.0755 6.43402L17.2842 2.39859ZM19.6641 2.0937L17.7048 5.67012L21.014 4.70898L20.5715 3.14106C20.4334 2.6532 20.0903 2.28123 19.6641 2.0937Z" fill="#6337C1"/>
</svg>
