<svg width="24" height="26" viewBox="0 0 24 26" fill="none" xmlns="http://www.w3.org/2000/svg">
<g opacity="0.5">
<mask id="path-1-inside-1_4_1159" fill="white">
<path d="M22.3635 2.39291L22.4292 2.60132L23.1394 5.11102C23.2743 5.58748 23.0363 6.08278 22.6005 6.27682L22.4769 6.32203L8.65662 10.3363L23.0337 10.3375C23.5229 10.3375 23.9272 10.7059 23.9912 11.1838L24 11.3166V22.4101C24 24.3193 22.5291 25.8804 20.6728 25.9935L20.457 26H4.3537C2.4694 26 0.928665 24.5096 0.817121 22.6288L0.810655 22.4101L0.81039 11.4551L0.138165 9.07772C-0.381217 7.24246 0.608064 5.33101 2.36167 4.70394L2.56736 4.63737L18.0468 0.139993C19.8581 -0.386259 21.7446 0.616108 22.3635 2.39291ZM22.0663 12.2944H2.74322V22.4101C2.74322 23.1986 3.29526 23.8566 4.02913 24.0087L4.18903 24.0334L4.3537 24.0419H20.457C21.2908 24.0419 21.9766 23.3998 22.0591 22.5769L22.0674 22.4101L22.0663 12.2944ZM5.02711 5.95976L3.10005 6.51964C2.2985 6.75252 1.81386 7.56131 1.95842 8.3753L1.99581 8.538L2.43945 10.1056L2.81963 9.99483L5.02711 5.95976ZM11.1551 4.17936L7.6539 5.19657L5.44642 9.23164L8.94758 8.21443L11.1551 4.17936ZM17.2842 2.39859L13.7831 3.41581L11.5756 7.45088L15.0755 6.43402L17.2842 2.39859ZM19.6641 2.0937L17.7048 5.67012L21.014 4.70898L20.5715 3.14106C20.4334 2.6532 20.0903 2.28123 19.6641 2.0937Z"/>
</mask>
<path d="M22.3635 2.39291L22.4292 2.60132L23.1394 5.11102C23.2743 5.58748 23.0363 6.08278 22.6005 6.27682L22.4769 6.32203L8.65662 10.3363L23.0337 10.3375C23.5229 10.3375 23.9272 10.7059 23.9912 11.1838L24 11.3166V22.4101C24 24.3193 22.5291 25.8804 20.6728 25.9935L20.457 26H4.3537C2.4694 26 0.928665 24.5096 0.817121 22.6288L0.810655 22.4101L0.81039 11.4551L0.138165 9.07772C-0.381217 7.24246 0.608064 5.33101 2.36167 4.70394L2.56736 4.63737L18.0468 0.139993C19.8581 -0.386259 21.7446 0.616108 22.3635 2.39291ZM22.0663 12.2944H2.74322V22.4101C2.74322 23.1986 3.29526 23.8566 4.02913 24.0087L4.18903 24.0334L4.3537 24.0419H20.457C21.2908 24.0419 21.9766 23.3998 22.0591 22.5769L22.0674 22.4101L22.0663 12.2944ZM5.02711 5.95976L3.10005 6.51964C2.2985 6.75252 1.81386 7.56131 1.95842 8.3753L1.99581 8.538L2.43945 10.1056L2.81963 9.99483L5.02711 5.95976ZM11.1551 4.17936L7.6539 5.19657L5.44642 9.23164L8.94758 8.21443L11.1551 4.17936ZM17.2842 2.39859L13.7831 3.41581L11.5756 7.45088L15.0755 6.43402L17.2842 2.39859ZM19.6641 2.0937L17.7048 5.67012L21.014 4.70898L20.5715 3.14106C20.4334 2.6532 20.0903 2.28123 19.6641 2.0937Z" fill="#666666"/>
<path d="M22.3635 2.39291L54.1542 -7.63018L54.0051 -8.10309L53.842 -8.57136L22.3635 2.39291ZM22.4292 2.60132L54.5029 -6.4756L54.3684 -6.95078L54.2199 -7.42177L22.4292 2.60132ZM23.1394 5.11102L55.2131 -3.96589L55.2131 -3.9659L23.1394 5.11102ZM22.6005 6.27682L34.0506 37.5819L35.1202 37.1907L36.1607 36.7273L22.6005 6.27682ZM22.4769 6.32203L31.7748 38.3324L32.8629 38.0163L33.927 37.6271L22.4769 6.32203ZM8.65662 10.3363L-0.641208 -21.674L8.65378 43.6697L8.65662 10.3363ZM23.0337 10.3375L23.0309 43.6709H23.0337V10.3375ZM23.9912 11.1838L57.2513 8.97515L57.1775 7.86398L57.0297 6.76021L23.9912 11.1838ZM24 11.3166H57.3333V10.2111L57.2601 9.108L24 11.3166ZM20.6728 25.9935L21.6841 59.3114L22.1917 59.296L22.6986 59.2652L20.6728 25.9935ZM20.457 26V59.3333H20.9627L21.4682 59.318L20.457 26ZM0.817121 22.6288L-32.5017 23.6139L-32.487 24.1084L-32.4577 24.6022L0.817121 22.6288ZM0.810655 22.4101L-32.5227 22.4109L-32.5227 22.9032L-32.5081 23.3952L0.810655 22.4101ZM0.81039 11.4551L34.1437 11.4543L34.1436 6.83258L32.8861 2.38527L0.81039 11.4551ZM0.138165 9.07772L32.2139 0.00791944L32.2118 0.000805439L0.138165 9.07772ZM2.36167 4.70394L-7.90311 -27.0095L-8.38496 -26.8536L-8.86186 -26.6831L2.36167 4.70394ZM2.56736 4.63737L-6.73268 -27.3723L-7.21729 -27.2315L-7.69742 -27.0761L2.56736 4.63737ZM18.0468 0.139993L27.3469 32.1497L18.0468 0.139993ZM22.0663 12.2944L55.3997 12.2908L55.396 -21.0389H22.0663V12.2944ZM2.74322 12.2944V-21.0389H-30.5901V12.2944H2.74322ZM4.02913 24.0087L-2.73816 56.6479L-1.90537 56.8205L-1.06486 56.9505L4.02913 24.0087ZM4.18903 24.0334L-0.904956 56.9752L0.781407 57.236L2.48558 57.3232L4.18903 24.0334ZM4.3537 24.0419L2.65025 57.3316L3.50141 57.3752H4.3537V24.0419ZM22.0591 22.5769L55.2263 25.9013L55.3095 25.0703L55.3511 24.2363L22.0591 22.5769ZM22.0674 22.4101L55.3594 24.0695L55.4009 23.2385L55.4008 22.4064L22.0674 22.4101ZM5.02711 5.95976L34.2704 21.958L72.7817 -48.4372L-4.27293 -26.0499L5.02711 5.95976ZM3.10005 6.51964L-6.19999 -25.49H-6.19999L3.10005 6.51964ZM1.95842 8.3753L-30.8614 14.2038L-30.7152 15.027L-30.5279 15.8418L1.95842 8.3753ZM1.99581 8.538L-30.4905 16.0045L-30.3043 16.8149L-30.0779 17.6149L1.99581 8.538ZM2.43945 10.1056L-29.6342 19.1825L-20.4868 51.5053L11.7642 42.1081L2.43945 10.1056ZM2.81963 9.99483L12.1444 41.9973L25.4242 38.1279L32.0629 25.993L2.81963 9.99483ZM11.1551 4.17936L40.3983 20.1775L78.9096 -50.2176L1.85501 -27.8303L11.1551 4.17936ZM7.6539 5.19657L-1.64614 -26.8131L-14.9435 -22.9497L-21.5894 -10.8016L7.6539 5.19657ZM5.44642 9.23164L-23.7968 -6.76655L-62.3081 63.6286L14.7465 41.2413L5.44642 9.23164ZM8.94758 8.21443L18.2476 40.2241L31.5449 36.3607L38.1908 24.2126L8.94758 8.21443ZM17.2842 2.39859L46.5243 18.4026L85.0604 -52.0047L7.98419 -29.6111L17.2842 2.39859ZM13.7831 3.41581L4.48304 -28.5939L-8.81429 -24.7305L-15.4602 -12.5824L13.7831 3.41581ZM11.5756 7.45088L-17.6677 -8.54731L-56.1789 61.8479L20.8756 39.4606L11.5756 7.45088ZM15.0755 6.43402L24.3756 38.4437L37.6692 34.5814L44.3156 22.438L15.0755 6.43402ZM19.6641 2.0937L33.0897 -28.4164L5.11501 -40.7263L-9.56964 -13.9219L19.6641 2.0937ZM17.7048 5.67012L-11.529 -10.3455L-50.1096 60.0771L27.002 37.6806L17.7048 5.67012ZM21.014 4.70898L30.3112 36.7195L62.0796 27.4926L53.0942 -4.34495L21.014 4.70898ZM20.5715 3.14106L52.6517 -5.91288L52.6484 -5.92437L52.6452 -5.93586L20.5715 3.14106ZM-9.42721 12.416L-9.36151 12.6244L54.2199 -7.42177L54.1542 -7.63018L-9.42721 12.416ZM-9.64448 11.6782L-8.93423 14.1879L55.2131 -3.9659L54.5029 -6.4756L-9.64448 11.6782ZM-8.93423 14.1879C-13.3034 -1.25084 -5.69218 -17.613 9.0404 -24.1737L36.1607 36.7273C51.7647 29.7786 59.852 12.4258 55.2131 -3.96589L-8.93423 14.1879ZM11.1505 -25.0283L11.0269 -24.983L33.927 37.6271L34.0506 37.5819L11.1505 -25.0283ZM13.1791 -25.6883L-0.641208 -21.674L17.9544 42.3467L31.7748 38.3324L13.1791 -25.6883ZM8.65378 43.6697L23.0309 43.6709L23.0366 -22.9958L8.65945 -22.997L8.65378 43.6697ZM23.0337 43.6709C6.26669 43.6709 -6.96979 31.124 -9.04733 15.6073L57.0297 6.76021C54.8242 -9.71229 40.7791 -22.9958 23.0337 -22.9958V43.6709ZM-9.2689 13.3924L-9.26008 13.5252L57.2601 9.108L57.2513 8.97515L-9.2689 13.3924ZM-9.33333 11.3166V22.4101H57.3333V11.3166H-9.33333ZM-9.33333 22.4101C-9.33333 6.96642 2.64494 -6.30398 18.647 -7.27827L22.6986 59.2652C42.4132 58.0648 57.3333 41.6722 57.3333 22.4101H-9.33333ZM19.6615 -7.32454L19.4457 -7.31799L21.4682 59.318L21.6841 59.3114L19.6615 -7.32454ZM20.457 -7.33333H4.3537V59.3333H20.457V-7.33333ZM4.3537 -7.33333C20.5941 -7.33333 33.1878 5.40901 34.092 20.6554L-32.4577 24.6022C-31.3305 43.6102 -15.6553 59.3333 4.3537 59.3333V-7.33333ZM34.1359 21.6436L34.1294 21.4249L-32.5081 23.3952L-32.5017 23.6139L34.1359 21.6436ZM34.144 22.4093L34.1437 11.4543L-32.5229 11.4559L-32.5227 22.4109L34.144 22.4093ZM32.8861 2.38527L32.2139 0.00791966L-31.9375 18.1475L-31.2653 20.5249L32.8861 2.38527ZM32.2118 0.000805439C36.4134 14.8472 28.5291 30.7472 13.5852 36.0909L-8.86186 -26.6831C-27.3129 -20.0852 -37.1758 -0.362301 -31.9355 18.1546L32.2118 0.000805439ZM12.6265 36.4174L12.8321 36.3509L-7.69742 -27.0761L-7.90311 -27.0095L12.6265 36.4174ZM11.8674 36.6471L27.3469 32.1497L8.74677 -31.8697L-6.73268 -27.3723L11.8674 36.6471ZM27.3469 32.1497C11.7307 36.6868 -4.03997 27.9277 -9.11501 13.3572L53.842 -8.57136C47.5292 -26.6954 27.9855 -37.4593 8.74677 -31.8697L27.3469 32.1497ZM22.0663 -21.0389H2.74322V45.6277H22.0663V-21.0389ZM-30.5901 12.2944V22.4101H36.0766V12.2944H-30.5901ZM-30.5901 22.4101C-30.5901 39.0194 -18.9249 53.2918 -2.73816 56.6479L10.7964 -8.63044C25.5155 -5.57865 36.0766 7.37791 36.0766 22.4101H-30.5901ZM-1.06486 56.9505L-0.904956 56.9752L9.28303 -8.90836L9.12312 -8.93309L-1.06486 56.9505ZM2.48558 57.3232L2.65025 57.3316L6.05715 -9.24791L5.89249 -9.25633L2.48558 57.3232ZM4.3537 57.3752H20.457V-9.29146H4.3537V57.3752ZM20.457 57.3752C38.9378 57.3752 53.4891 43.2336 55.2263 25.9013L-11.108 19.2526C-9.53576 3.56593 3.64387 -9.29146 20.457 -9.29146V57.3752ZM55.3511 24.2363L55.3594 24.0695L-11.2246 20.7507L-11.2329 20.9176L55.3511 24.2363ZM55.4008 22.4064L55.3997 12.2908L-11.267 12.2981L-11.2659 22.4137L55.4008 22.4064ZM-4.27293 -26.0499L-6.19999 -25.49L12.4001 38.5293L14.3271 37.9694L-4.27293 -26.0499ZM-6.19999 -25.49C-23.8217 -20.3703 -33.8986 -2.89846 -30.8614 14.2038L34.7782 2.54676C37.5263 18.0211 28.4187 33.8753 12.4001 38.5293L-6.19999 -25.49ZM-30.5279 15.8418L-30.4905 16.0045L34.4822 1.0715L34.4448 0.908806L-30.5279 15.8418ZM-30.0779 17.6149L-29.6342 19.1825L34.5131 1.02869L34.0695 -0.53891L-30.0779 17.6149ZM11.7642 42.1081L12.1444 41.9973L-6.50516 -22.0077L-6.88534 -21.8969L11.7642 42.1081ZM32.0629 25.993L34.2704 21.958L-24.2162 -10.0384L-26.4236 -6.00337L32.0629 25.993ZM1.85501 -27.8303L-1.64614 -26.8131L16.9539 37.2063L20.4551 36.189L1.85501 -27.8303ZM-21.5894 -10.8016L-23.7968 -6.76655L34.6897 25.2298L36.8972 21.1948L-21.5894 -10.8016ZM14.7465 41.2413L18.2476 40.2241L-0.35246 -23.7953L-3.85361 -22.778L14.7465 41.2413ZM38.1908 24.2126L40.3983 20.1775L-18.0882 -11.8188L-20.2957 -7.78377L38.1908 24.2126ZM7.98419 -29.6111L4.48304 -28.5939L23.0831 35.4255L26.5843 34.4083L7.98419 -29.6111ZM-15.4602 -12.5824L-17.6677 -8.54731L40.8189 23.4491L43.0264 19.414L-15.4602 -12.5824ZM20.8756 39.4606L24.3756 38.4437L5.77548 -25.5757L2.27557 -24.5588L20.8756 39.4606ZM44.3156 22.438L46.5243 18.4026L-11.9559 -13.6054L-14.1646 -9.56998L44.3156 22.438ZM-9.56964 -13.9219L-11.529 -10.3455L46.9385 21.6857L48.8979 18.1093L-9.56964 -13.9219ZM27.002 37.6806L30.3112 36.7195L11.7168 -27.3015L8.40759 -26.3404L27.002 37.6806ZM53.0942 -4.34495L52.6517 -5.91288L-11.5087 12.195L-11.0662 13.7629L53.0942 -4.34495ZM52.6452 -5.93586C49.7164 -16.2848 42.3355 -24.3479 33.0897 -28.4164L6.23856 32.6038C-2.15493 28.9103 -8.84954 21.5912 -11.5022 12.218L52.6452 -5.93586Z" fill="#666666" mask="url(#path-1-inside-1_4_1159)"/>
</g>
</svg>
