<svg width="23" height="22" viewBox="0 0 23 22" fill="none" xmlns="http://www.w3.org/2000/svg">
<g opacity="0.5">
<mask id="path-1-inside-1_4_1153" fill="white">
<path d="M11.5009 1.5766e-05C9.74154 -0.001081 8.00537 0.384408 6.42621 1.12678C4.84705 1.86915 3.46704 2.94859 2.39253 4.28192C1.31801 5.61524 0.577672 7.16686 0.228553 8.81722C-0.120566 10.4676 -0.0691438 12.1726 0.378858 13.801C0.82686 15.4293 1.65948 16.9375 2.81256 18.2093C3.96565 19.481 5.40841 20.4825 7.02969 21.1365C8.65096 21.7904 10.4075 22.0794 12.1638 21.9812C13.9202 21.883 15.6296 21.4002 17.1603 20.5699L21.4818 21.9482C21.5993 21.9837 21.7218 22.0012 21.845 21.9999C22.027 21.9998 22.2064 21.9583 22.3684 21.8788C22.5304 21.7994 22.6703 21.6842 22.7767 21.5429C22.8831 21.4015 22.9529 21.238 22.9803 21.0658C23.0078 20.8936 22.9921 20.7176 22.9346 20.5523L21.5002 16.4164C22.4936 14.7438 23.0108 12.8509 22.9998 10.927C22.9889 9.00308 22.4503 7.11566 21.4379 5.45354C20.4255 3.79142 18.9748 2.41288 17.2309 1.45582C15.487 0.498766 13.5111 -0.00324311 11.5009 1.5766e-05ZM19.1475 16.6331L20.0279 19.163L17.3844 18.3205C17.2231 18.2678 17.0516 18.2504 16.8823 18.2694C16.7131 18.2884 16.5505 18.3435 16.4063 18.4305C14.4894 19.5915 12.1924 20.0353 9.95498 19.6768C7.71756 19.3183 5.69683 18.1828 4.27953 16.4875C2.86224 14.7922 2.14792 12.6562 2.27328 10.4884C2.39865 8.32055 3.35489 6.27309 4.95901 4.73784C6.56312 3.2026 8.70244 2.28741 10.9675 2.16743C13.2326 2.04745 15.4644 2.7311 17.2358 4.08754C19.0071 5.44399 20.1936 7.37795 20.5681 9.51932C20.9427 11.6607 20.479 13.859 19.2659 15.6937C19.1744 15.8319 19.1162 15.988 19.0958 16.1506C19.0753 16.3131 19.093 16.4779 19.1475 16.6331Z"/>
</mask>
<path d="M11.5009 1.5766e-05C9.74154 -0.001081 8.00537 0.384408 6.42621 1.12678C4.84705 1.86915 3.46704 2.94859 2.39253 4.28192C1.31801 5.61524 0.577672 7.16686 0.228553 8.81722C-0.120566 10.4676 -0.0691438 12.1726 0.378858 13.801C0.82686 15.4293 1.65948 16.9375 2.81256 18.2093C3.96565 19.481 5.40841 20.4825 7.02969 21.1365C8.65096 21.7904 10.4075 22.0794 12.1638 21.9812C13.9202 21.883 15.6296 21.4002 17.1603 20.5699L21.4818 21.9482C21.5993 21.9837 21.7218 22.0012 21.845 21.9999C22.027 21.9998 22.2064 21.9583 22.3684 21.8788C22.5304 21.7994 22.6703 21.6842 22.7767 21.5429C22.8831 21.4015 22.9529 21.238 22.9803 21.0658C23.0078 20.8936 22.9921 20.7176 22.9346 20.5523L21.5002 16.4164C22.4936 14.7438 23.0108 12.8509 22.9998 10.927C22.9889 9.00308 22.4503 7.11566 21.4379 5.45354C20.4255 3.79142 18.9748 2.41288 17.2309 1.45582C15.487 0.498766 13.5111 -0.00324311 11.5009 1.5766e-05ZM19.1475 16.6331L20.0279 19.163L17.3844 18.3205C17.2231 18.2678 17.0516 18.2504 16.8823 18.2694C16.7131 18.2884 16.5505 18.3435 16.4063 18.4305C14.4894 19.5915 12.1924 20.0353 9.95498 19.6768C7.71756 19.3183 5.69683 18.1828 4.27953 16.4875C2.86224 14.7922 2.14792 12.6562 2.27328 10.4884C2.39865 8.32055 3.35489 6.27309 4.95901 4.73784C6.56312 3.2026 8.70244 2.28741 10.9675 2.16743C13.2326 2.04745 15.4644 2.7311 17.2358 4.08754C19.0071 5.44399 20.1936 7.37795 20.5681 9.51932C20.9427 11.6607 20.479 13.859 19.2659 15.6937C19.1744 15.8319 19.1162 15.988 19.0958 16.1506C19.0753 16.3131 19.093 16.4779 19.1475 16.6331Z" fill="#666666"/>
<path d="M11.5009 1.5766e-05L11.4801 33.3333L11.5175 33.3334L11.555 33.3333L11.5009 1.5766e-05ZM17.1603 20.5699L27.2888 -11.1873L13.7548 -15.5038L1.26772 -8.73087L17.1603 20.5699ZM21.4818 21.9482L11.3533 53.7055L11.5957 53.7828L11.8394 53.8564L21.4818 21.9482ZM21.845 21.9999L21.8208 -11.3334L21.6648 -11.3333L21.5088 -11.3317L21.845 21.9999ZM22.9346 20.5523L-8.55861 31.4743L-8.55275 31.4912L-8.54686 31.5082L22.9346 20.5523ZM21.5002 16.4164L-7.15891 -0.606162L-15.0669 12.7078L-9.99299 27.3383L21.5002 16.4164ZM19.1475 16.6331L50.6292 5.67792L50.6117 5.62776L50.5941 5.57765L19.1475 16.6331ZM20.0279 19.163L9.9049 50.9221L73.4182 71.1665L51.5096 8.20791L20.0279 19.163ZM17.3844 18.3205L7.04231 50.0088L7.15174 50.0445L7.26141 50.0795L17.3844 18.3205ZM16.4063 18.4305L-0.816684 -10.1086L-0.839765 -10.0947L-0.862824 -10.0807L16.4063 18.4305ZM19.2659 15.6937L47.0628 34.0905L47.0701 34.0795L19.2659 15.6937ZM11.5217 -33.3333C4.89484 -33.3374 -1.69503 -31.8883 -7.75509 -29.0395L20.6075 31.293C17.7058 32.6571 14.5882 33.3353 11.4801 33.3333L11.5217 -33.3333ZM-7.75509 -29.0395C-13.8192 -26.1887 -19.2533 -21.9805 -23.5617 -16.6344L28.3467 25.1982C26.1873 27.8777 23.5133 29.927 20.6075 31.293L-7.75509 -29.0395ZM-23.5617 -16.6344C-27.8755 -11.2815 -30.9316 -4.94311 -32.3831 1.91852L32.8402 15.7159C32.0869 19.2768 30.5115 22.512 28.3467 25.1982L-23.5617 -16.6344ZM-32.3831 1.91852C-33.8356 8.78465 -33.6191 15.8873 -31.7603 22.6433L32.518 4.95858C33.4808 8.45798 33.5944 12.1505 32.8402 15.7159L-32.3831 1.91852ZM-31.7603 22.6433C-29.903 29.3939 -26.4837 35.5233 -21.8819 40.5988L27.5071 -4.18032C29.8027 -1.64836 31.5567 1.4647 32.518 4.95858L-31.7603 22.6433ZM-21.8819 40.5988C-17.2857 45.6682 -11.6384 49.5493 -5.43954 52.0497L19.4989 -9.77679C22.4552 -8.58433 25.217 -6.70612 27.5071 -4.18032L-21.8819 40.5988ZM-5.43954 52.0497C0.755733 54.5487 7.40752 55.6326 14.025 55.2625L10.3027 -11.3001C13.4074 -11.4737 16.5462 -10.9678 19.4989 -9.77679L-5.43954 52.0497ZM14.025 55.2625C20.643 54.8925 27.1507 53.0721 33.0528 49.8708L1.26772 -8.73087C4.10857 -10.2717 7.19748 -11.1265 10.3027 -11.3001L14.025 55.2625ZM7.03173 52.3272L11.3533 53.7055L31.6104 -9.80902L27.2888 -11.1873L7.03173 52.3272ZM11.8394 53.8564C15.204 54.8732 18.6919 55.3668 22.1812 55.3316L21.5088 -11.3317C24.7518 -11.3644 27.9945 -10.9058 31.1243 -9.95997L11.8394 53.8564ZM21.8692 55.3333C27.0857 55.3295 32.2832 54.1431 37.0489 51.8053L7.68783 -8.04761C12.1296 -10.2265 16.9683 -11.3299 21.8208 -11.3334L21.8692 55.3333ZM37.0489 51.8053C41.8196 49.465 46.0868 46.0024 49.4091 41.5886L-3.85565 1.49722C-0.746181 -2.63397 3.24114 -5.86626 7.68783 -8.04761L37.0489 51.8053ZM49.4091 41.5886C52.7372 37.1668 55.0016 31.9374 55.8982 26.3125L-9.9375 15.8192C-9.09586 10.5387 -6.97106 5.63631 -3.85565 1.49722L49.4091 41.5886ZM55.8982 26.3125C56.7953 20.6835 56.2762 14.9418 54.416 9.59653L-8.54686 31.5082C-10.292 26.4934 -10.7798 21.1037 -9.9375 15.8192L55.8982 26.3125ZM54.4278 9.63036L52.9934 5.49437L-9.99299 27.3383L-8.55861 31.4743L54.4278 9.63036ZM50.1593 33.4389C54.2088 26.6211 56.3784 18.7874 56.3326 10.7375L-10.333 11.1165C-10.3569 6.91431 -9.22153 2.86645 -7.15891 -0.606162L50.1593 33.4389ZM56.3326 10.7375C56.2869 2.68769 54.0285 -5.11828 49.906 -11.8865L-7.03023 22.7936C-9.128 19.3496 -10.3091 15.3185 -10.333 11.1165L56.3326 10.7375ZM49.906 -11.8865C45.791 -18.6424 40.0051 -24.0687 33.2682 -27.766L1.19359 30.6777C-2.0556 28.8945 -4.94003 26.2252 -7.03023 22.7936L49.906 -11.8865ZM33.2682 -27.766C26.5391 -31.459 19.0197 -33.3456 11.4469 -33.3333L11.555 33.3333C8.0026 33.3391 4.43492 32.4565 1.19359 30.6777L33.2682 -27.766ZM-12.3342 27.5882L-11.4538 30.1182L51.5096 8.20791L50.6292 5.67792L-12.3342 27.5882ZM30.1509 -12.596L27.5074 -13.4386L7.26141 50.0795L9.9049 50.9221L30.1509 -12.596ZM27.7265 -13.3679C23.0149 -14.9056 18.0454 -15.4049 13.157 -14.8551L20.6076 51.3939C16.0577 51.9056 11.4314 51.4413 7.04231 50.0088L27.7265 -13.3679ZM13.157 -14.8551C8.26788 -14.3053 3.4925 -12.7092 -0.816684 -10.1086L33.6293 46.9695C29.6084 49.3961 25.1583 50.8821 20.6076 51.3939L13.157 -14.8551ZM-0.862824 -10.0807C4.05723 -13.0608 9.76214 -14.1126 15.2284 -13.2367L4.68155 52.5904C14.6227 54.1831 24.9215 52.2439 33.6754 46.9416L-0.862824 -10.0807ZM15.2284 -13.2367C20.7052 -12.3593 25.9732 -9.53339 29.8531 -4.89252L-21.294 37.8675C-14.5796 45.899 -5.2701 50.9959 4.68155 52.5904L15.2284 -13.2367ZM29.8531 -4.89252C33.7681 -0.209586 35.9247 5.95123 35.551 12.4128L-31.0045 8.56397C-31.6289 19.3613 -28.0436 29.794 -21.294 37.8675L29.8531 -4.89252ZM35.551 12.4128C35.1778 18.8661 32.3388 24.6732 28.0066 28.8194L-18.0886 -19.3437C-25.629 -12.127 -30.3805 -2.22502 -31.0045 8.56397L35.551 12.4128ZM28.0066 28.8194C23.7115 32.93 18.2452 35.162 12.7307 35.4541L9.20434 -31.1192C-0.840279 -30.5872 -10.5853 -26.5249 -18.0886 -19.3437L28.0066 28.8194ZM12.7307 35.4541C7.21982 35.746 1.61007 34.106 -3.0304 30.5525L37.5019 -22.3774C29.3188 -28.6439 19.2454 -31.6511 9.20434 -31.1192L12.7307 35.4541ZM-3.0304 30.5525C-7.70702 26.9713 -11.1586 21.5974 -12.2667 15.2627L53.403 3.7759C51.5458 -6.84146 45.7212 -16.0833 37.5019 -22.3774L-3.0304 30.5525ZM-12.2667 15.2627C-13.3789 8.90434 -11.9618 2.485 -8.53832 -2.69214L47.0701 34.0795C52.9198 25.2331 55.2643 14.417 53.403 3.7759L-12.2667 15.2627ZM-8.53104 -2.70314C-11.415 1.65447 -13.3064 6.66973 -13.976 11.9829L52.1675 20.3182C51.5389 25.3063 49.7637 30.0094 47.0628 34.0905L-8.53104 -2.70314ZM-13.976 11.9829C-14.6459 17.2985 -14.062 22.6741 -12.2991 27.6885L50.5941 5.57765C52.2479 10.2817 52.7964 15.3277 52.1675 20.3182L-13.976 11.9829Z" fill="#666666" mask="url(#path-1-inside-1_4_1153)"/>
</g>
</svg>
