<svg width="20" height="17" viewBox="0 0 20 17" fill="none" xmlns="http://www.w3.org/2000/svg">
<path fill-rule="evenodd" clip-rule="evenodd" d="M4.90229 1.63759C5.49419 0.676904 6.55416 0 7.76825 0H12.2317C13.4458 0 14.5058 0.676904 15.0977 1.63759C15.2781 1.93042 15.4801 2.2379 15.6882 2.51898C15.7877 2.65347 15.9822 2.7609 16.2519 2.7609H16.3635C18.3718 2.7609 20 4.36334 20 6.33985V13.4211C20 15.3976 18.3719 17 16.3636 17H3.63636C1.62805 17 0 15.3976 0 13.4211V6.33985C0 4.36335 1.62775 2.7609 3.63615 2.7609H3.74762C4.01738 2.7609 4.21225 2.65347 4.31183 2.51898C4.51994 2.2379 4.72188 1.93042 4.90229 1.63759ZM7.76825 1.78947C7.26066 1.78947 6.75778 2.07721 6.45697 2.56545C6.25924 2.88639 6.02854 3.23885 5.78126 3.57284C5.28233 4.24673 4.49458 4.55037 3.74805 4.55037H3.63658C2.63253 4.55037 1.81818 5.35146 1.81818 6.33985V13.4211C1.81818 14.4094 2.63221 15.2105 3.63636 15.2105H16.3636C17.3678 15.2105 18.1818 14.4094 18.1818 13.4211V6.33985C18.1818 5.35146 17.3679 4.55037 16.3638 4.55037H16.2524C15.5058 4.55037 14.7176 4.24673 14.2187 3.57284C13.9715 3.23885 13.7407 2.88639 13.543 2.56545C13.2422 2.07721 12.7394 1.78947 12.2317 1.78947H7.76825ZM10 6.26316C8.49373 6.26316 7.27273 7.46488 7.27273 8.94737C7.27273 10.4299 8.49373 11.6316 10 11.6316C11.5063 11.6316 12.7273 10.4299 12.7273 8.94737C12.7273 7.46488 11.5063 6.26316 10 6.26316ZM5.45455 8.94737C5.45455 6.47662 7.48962 4.47368 10 4.47368C12.5104 4.47368 14.5455 6.47662 14.5455 8.94737C14.5455 11.4181 12.5104 13.4211 10 13.4211C7.48962 13.4211 5.45455 11.4181 5.45455 8.94737Z" fill="white"/>
</svg>
